<?xml version="1.0" encoding="UTF-8" standalone="no"?>
<!DOCTYPE svg PUBLIC "-//W3C//DTD SVG 1.1//EN" "http://www.w3.org/Graphics/SVG/1.1/DTD/svg11.dtd">
<svg width="100%" height="100%" viewBox="0 0 30 150" version="1.1" xmlns="http://www.w3.org/2000/svg" xmlns:xlink="http://www.w3.org/1999/xlink" xml:space="preserve" xmlns:serif="http://www.serif.com/" style="fill-rule:evenodd;clip-rule:evenodd;stroke-miterlimit:2;">
    <g>
        <g transform="matrix(1,0,0,1,-25.7465,-56.0984)">
            <path d="M28.016,201.71L44.583,201.71L28.016,190.669L28.016,201.71Z" style="fill:none;"/>
            <path d="M28.016,201.71L44.583,201.71L28.016,190.669L28.016,201.71Z" style="fill:rgb(0,0,255);fill-rule:nonzero;"/>
            <path d="M44.583,201.71L44.583,190.669L28.016,190.669L44.583,201.71Z" style="fill:none;"/>
            <path d="M44.583,201.71L44.583,190.669L28.016,190.669L44.583,201.71Z" style="fill:rgb(0,0,255);fill-rule:nonzero;"/>
            <path d="M28.016,190.669L44.583,190.669L28.016,179.634L28.016,190.669Z" style="fill:none;"/>
            <path d="M28.016,190.669L44.583,190.669L28.016,179.634L28.016,190.669Z" style="fill:rgb(0,92,255);fill-rule:nonzero;"/>
            <path d="M44.583,190.669L44.583,179.634L28.016,179.634L44.583,190.669Z" style="fill:none;"/>
            <path d="M44.583,190.669L44.583,179.634L28.016,179.634L44.583,190.669Z" style="fill:rgb(0,92,255);fill-rule:nonzero;"/>
            <path d="M28.016,179.634L44.583,179.634L28.016,168.598L28.016,179.634Z" style="fill:none;"/>
            <path d="M28.016,179.634L44.583,179.634L28.016,168.598L28.016,179.634Z" style="fill:rgb(0,186,255);fill-rule:nonzero;"/>
            <path d="M44.583,179.634L44.583,168.598L28.016,168.598L44.583,179.634Z" style="fill:none;"/>
            <path d="M44.583,179.634L44.583,168.598L28.016,168.598L44.583,179.634Z" style="fill:rgb(0,186,255);fill-rule:nonzero;"/>
            <path d="M28.016,168.598L44.583,168.598L28.016,157.563L28.016,168.598Z" style="fill:none;"/>
            <path d="M28.016,168.598L44.583,168.598L28.016,157.563L28.016,168.598Z" style="fill:rgb(0,255,232);fill-rule:nonzero;"/>
            <path d="M44.583,168.598L44.583,157.563L28.016,157.563L44.583,168.598Z" style="fill:none;"/>
            <path d="M44.583,168.598L44.583,157.563L28.016,157.563L44.583,168.598Z" style="fill:rgb(0,255,232);fill-rule:nonzero;"/>
            <path d="M28.016,157.563L44.583,157.563L28.016,146.523L28.016,157.563Z" style="fill:none;"/>
            <path d="M28.016,157.563L44.583,157.563L28.016,146.523L28.016,157.563Z" style="fill:rgb(0,255,140);fill-rule:nonzero;"/>
            <path d="M44.583,157.563L44.583,146.523L28.016,146.523L44.583,157.563Z" style="fill:none;"/>
            <path d="M44.583,157.563L44.583,146.523L28.016,146.523L44.583,157.563Z" style="fill:rgb(0,255,140);fill-rule:nonzero;"/>
            <path d="M28.016,146.523L44.583,146.523L28.016,135.487L28.016,146.523Z" style="fill:none;"/>
            <path d="M28.016,146.523L44.583,146.523L28.016,135.487L28.016,146.523Z" style="fill:rgb(0,255,46);fill-rule:nonzero;"/>
            <path d="M44.583,146.523L44.583,135.487L28.016,135.487L44.583,146.523Z" style="fill:none;"/>
            <path d="M44.583,146.523L44.583,135.487L28.016,135.487L44.583,146.523Z" style="fill:rgb(0,255,46);fill-rule:nonzero;"/>
            <path d="M28.016,135.487L44.583,135.487L28.016,124.451L28.016,135.487Z" style="fill:none;"/>
            <path d="M28.016,135.487L44.583,135.487L28.016,124.451L28.016,135.487Z" style="fill:rgb(46,255,0);fill-rule:nonzero;"/>
            <path d="M44.583,135.487L44.583,124.451L28.016,124.451L44.583,135.487Z" style="fill:none;"/>
            <path d="M44.583,135.487L44.583,124.451L28.016,124.451L44.583,135.487Z" style="fill:rgb(46,255,0);fill-rule:nonzero;"/>
            <path d="M28.016,124.451L44.583,124.451L28.016,113.411L28.016,124.451Z" style="fill:none;"/>
            <path d="M28.016,124.451L44.583,124.451L28.016,113.411L28.016,124.451Z" style="fill:rgb(140,255,0);fill-rule:nonzero;"/>
            <path d="M44.583,124.451L44.583,113.411L28.016,113.411L44.583,124.451Z" style="fill:none;"/>
            <path d="M44.583,124.451L44.583,113.411L28.016,113.411L44.583,124.451Z" style="fill:rgb(140,255,0);fill-rule:nonzero;"/>
            <path d="M28.016,113.411L44.583,113.411L28.016,102.376L28.016,113.411Z" style="fill:none;"/>
            <path d="M28.016,113.411L44.583,113.411L28.016,102.376L28.016,113.411Z" style="fill:rgb(232,255,0);fill-rule:nonzero;"/>
            <path d="M44.583,113.411L44.583,102.376L28.016,102.376L44.583,113.411Z" style="fill:none;"/>
            <path d="M44.583,113.411L44.583,102.376L28.016,102.376L44.583,113.411Z" style="fill:rgb(232,255,0);fill-rule:nonzero;"/>
            <path d="M28.016,102.376L44.583,102.376L28.016,91.34L28.016,102.376Z" style="fill:none;"/>
            <path d="M28.016,102.376L44.583,102.376L28.016,91.34L28.016,102.376Z" style="fill:rgb(255,186,0);fill-rule:nonzero;"/>
            <path d="M44.583,102.376L44.583,91.34L28.016,91.34L44.583,102.376Z" style="fill:none;"/>
            <path d="M44.583,102.376L44.583,91.34L28.016,91.34L44.583,102.376Z" style="fill:rgb(255,186,0);fill-rule:nonzero;"/>
            <path d="M28.016,91.34L44.583,91.34L28.016,80.3L28.016,91.34Z" style="fill:none;"/>
            <path d="M28.016,91.34L44.583,91.34L28.016,80.3L28.016,91.34Z" style="fill:rgb(255,92,0);fill-rule:nonzero;"/>
            <path d="M44.583,91.34L44.583,80.3L28.016,80.3L44.583,91.34Z" style="fill:none;"/>
            <path d="M44.583,91.34L44.583,80.3L28.016,80.3L44.583,91.34Z" style="fill:rgb(255,92,0);fill-rule:nonzero;"/>
            <path d="M28.016,80.3L44.583,80.3L28.016,69.264L28.016,80.3Z" style="fill:none;"/>
            <path d="M28.016,80.3L44.583,80.3L28.016,69.264L28.016,80.3Z" style="fill:rgb(255,0,0);fill-rule:nonzero;"/>
            <path d="M44.583,80.3L44.583,69.264L28.016,69.264L44.583,80.3Z" style="fill:none;"/>
            <path d="M44.583,80.3L44.583,69.264L28.016,69.264L44.583,80.3Z" style="fill:rgb(255,0,0);fill-rule:nonzero;"/>
            <path d="M28.016,58.229L44.583,58.229L28.016,69.264L28.016,58.229Z" style="fill:none;"/>
            <path d="M44.583,58.229L44.583,69.264L28.016,69.264L44.583,58.229Z" style="fill:none;"/>
        </g>
        <g transform="matrix(1,0,0,1,-25.7465,-56.0984)">
            <path d="M28.016,201.71L50.106,201.71" style="fill:none;stroke:black;stroke-width:0.5px;"/>
            <path d="M28.016,190.669L50.106,190.669" style="fill:none;stroke:black;stroke-width:0.5px;"/>
            <path d="M28.016,179.634L50.106,179.634" style="fill:none;stroke:black;stroke-width:0.5px;"/>
            <path d="M28.016,168.598L50.106,168.598" style="fill:none;stroke:black;stroke-width:0.5px;"/>
            <path d="M28.016,157.563L50.106,157.563" style="fill:none;stroke:black;stroke-width:0.5px;"/>
            <path d="M28.016,146.523L50.106,146.523" style="fill:none;stroke:black;stroke-width:0.5px;"/>
            <path d="M28.016,135.487L50.106,135.487" style="fill:none;stroke:black;stroke-width:0.5px;"/>
            <path d="M28.016,124.451L50.106,124.451" style="fill:none;stroke:black;stroke-width:0.5px;"/>
            <path d="M28.016,113.411L50.106,113.411" style="fill:none;stroke:black;stroke-width:0.5px;"/>
            <path d="M28.016,102.376L50.106,102.376" style="fill:none;stroke:black;stroke-width:0.5px;"/>
            <path d="M28.016,91.34L50.106,91.34" style="fill:none;stroke:black;stroke-width:0.5px;"/>
            <path d="M28.016,80.3L50.106,80.3" style="fill:none;stroke:black;stroke-width:0.5px;"/>
            <path d="M28.016,69.264L50.106,69.264" style="fill:none;stroke:black;stroke-width:0.5px;"/>
            <g transform="matrix(1,0,0,0.923183,0,15.4947)">
                <rect x="28.016" y="58.229" width="16.567" height="143.481" style="fill:none;stroke:black;stroke-width:0.52px;"/>
            </g>
        </g>
        <g transform="matrix(0.972936,0,0,0.837385,-29.962,-47.5717)">
            <path d="M41.631,58.731L50.131,72.39L33.131,72.39L41.631,58.731Z" style="fill:rgb(166,166,166);stroke:black;stroke-width:0.55px;stroke-linecap:round;stroke-linejoin:round;stroke-miterlimit:1.5;"/>
        </g>
    </g>
</svg>
